<svg xmlns="http://www.w3.org/2000/svg" xmlns:xlink="http://www.w3.org/1999/xlink" version="1.1" data-diagram-type="STATE" style="width:327px;height:478px;background:#FFFFFF;" width="327px" height="478px" viewBox="0 0 327 478" zoomAndPan="magnify" preserveAspectRatio="none" contentStyleType="text/css"><?plantuml 1.2026.8beta1?><defs/><g font-family="sans-serif" lengthAdjust="spacing"><g class="entity" data-qualified-name="STATE_RUNNING" id="ent0001" data-source-line="105"><path d="M12,71 L307.164,71 A5,5 0 0 1 312.164,76 L312.164,94.969 L7,94.969 L7,76 A5,5 0 0 1 12,71" fill="#FFF"/><path d="M7,94.969 L312.164,94.969 L312.164,458.969 A5,5 0 0 1 307.164,463.969 L12,463.969 A5,5 0 0 1 7,458.969 L7,94.969" fill="#FFF"/><rect x="7" y="71" width="305.164" height="392.969" fill="none" style="stroke:#00A9CE;stroke-width:0.5;" rx="5" ry="5"/><line x1="7" y1="94.969" x2="312.164" y2="94.969" style="stroke:#00A9CE;stroke-width:0.5;"/><text x="109.103" y="87.139" fill="#334155" font-size="12" textLength="100.957" font-family="Helvetica">STATE_RUNNING</text><rect x="19" y="182.969" width="236.242" height="40" fill="#F1F5F9" style="stroke:#00A9CE;stroke-width:0.5;" rx="5" ry="5"/><text x="24" y="207.123" fill="#334155" font-size="12" textLength="226.242" font-family="Helvetica">STATE_WAITING_FOR_POLL_REQUEST</text><rect x="41.62" y="258.969" width="191.002" height="40" fill="#F1F5F9" style="stroke:#00A9CE;stroke-width:0.5;" rx="5" ry="5"/><text x="46.62" y="283.123" fill="#334155" font-size="12" textLength="181.002" font-family="Helvetica">STATE_POLLING_FOR_UPDATE</text><rect x="35.44" y="334.969" width="203.371" height="40" fill="#F1F5F9" style="stroke:#00A9CE;stroke-width:0.5;" rx="5" ry="5"/><text x="40.44" y="359.123" fill="#334155" font-size="12" textLength="193.371" font-family="Helvetica">STATE_DOWNLOADING_UPDATE</text><rect x="54.48" y="410.969" width="165.291" height="40" fill="#F1F5F9" style="stroke:#00A9CE;stroke-width:0.5;" rx="5" ry="5"/><text x="59.48" y="435.123" fill="#334155" font-size="12" textLength="155.291" font-family="Helvetica">STATE_REBOOT_PENDING</text><rect x="165.07" y="106.969" width="124.094" height="40" fill="#F1F5F9" style="stroke:#00A9CE;stroke-width:0.5;" rx="5" ry="5"/><text x="170.07" y="131.123" fill="#334155" font-size="12" textLength="114.094" font-family="Helvetica">STATE_CANCELING</text><g class="start_entity" data-qualified-name="STATE_RUNNING..start.STATE_RUNNING" id="ent0007" data-source-line="112"><ellipse cx="137.12" cy="126.969" rx="10" ry="10" fill="#222" style="stroke:#222;stroke-width:1;"/></g><!--link *start*STATE_RUNNING to STATE_WAITING_FOR_POLL_REQUEST--><g class="link" data-entity-1="ent0007" data-entity-2="ent0002" id="lnk8" data-source-line="112" data-link-type="dependency"><path d="M137.12,137.339 C137.12,148.699 137.12,163.119 137.12,177.719" style="stroke:#6B7280;stroke-width:1;" fill="none" id="*start*STATE_RUNNING-to-STATE_WAITING_FOR_POLL_REQUEST"/><polygon points="137.12,182.719,141.12,173.719,137.12,177.719,133.12,173.719,137.12,182.719" fill="#6B7280" style="stroke:#6B7280;stroke-width:1;stroke-linejoin:miter;stroke-miterlimit:10;"/></g><!--link STATE_WAITING_FOR_POLL_REQUEST to STATE_POLLING_FOR_UPDATE--><g class="link" data-entity-1="ent0002" data-entity-2="ent0003" id="lnk9" data-source-line="114" data-link-type="dependency"><path d="M137.12,223.409 C137.12,234.289 137.12,242.799 137.12,253.659" style="stroke:#6B7280;stroke-width:1;" fill="none" id="STATE_WAITING_FOR_POLL_REQUEST-to-STATE_POLLING_FOR_UPDATE"/><polygon points="137.12,258.659,141.12,249.659,137.12,253.659,133.12,249.659,137.12,258.659" fill="#6B7280" style="stroke:#6B7280;stroke-width:1;stroke-linejoin:miter;stroke-miterlimit:10;"/></g><!--link STATE_POLLING_FOR_UPDATE to STATE_DOWNLOADING_UPDATE--><g class="link" data-entity-1="ent0003" data-entity-2="ent0004" id="lnk10" data-source-line="115" data-link-type="dependency"><path d="M137.12,299.409 C137.12,310.289 137.12,318.799 137.12,329.659" style="stroke:#6B7280;stroke-width:1;" fill="none" id="STATE_POLLING_FOR_UPDATE-to-STATE_DOWNLOADING_UPDATE"/><polygon points="137.12,334.659,141.12,325.659,137.12,329.659,133.12,325.659,137.12,334.659" fill="#6B7280" style="stroke:#6B7280;stroke-width:1;stroke-linejoin:miter;stroke-miterlimit:10;"/></g><!--link STATE_DOWNLOADING_UPDATE to STATE_REBOOT_PENDING--><g class="link" data-entity-1="ent0004" data-entity-2="ent0005" id="lnk11" data-source-line="116" data-link-type="dependency"><path d="M137.12,375.409 C137.12,386.289 137.12,394.799 137.12,405.659" style="stroke:#6B7280;stroke-width:1;" fill="none" id="STATE_DOWNLOADING_UPDATE-to-STATE_REBOOT_PENDING"/><polygon points="137.12,410.659,141.12,401.659,137.12,405.659,133.12,401.659,137.12,410.659" fill="#6B7280" style="stroke:#6B7280;stroke-width:1;stroke-linejoin:miter;stroke-miterlimit:10;"/></g></g><g class="start_entity" data-qualified-name=".start." id="ent0012" data-source-line="119"><ellipse cx="159.58" cy="16" rx="10" ry="10" fill="#222" style="stroke:#222;stroke-width:1;"/></g><!--link *start* to STATE_RUNNING--><g class="link" data-entity-1="ent0012" data-entity-2="ent0001" id="lnk13" data-source-line="119" data-link-type="dependency"><path d="M159.58,26.48 C159.58,35.87 159.58,46.58 159.58,65.61" style="stroke:#6B7280;stroke-width:1;" fill="none" id="*start*-to-STATE_RUNNING"/><polygon points="159.58,70.61,163.58,61.61,159.58,65.61,155.58,61.61,159.58,70.61" fill="#6B7280" style="stroke:#6B7280;stroke-width:1;stroke-linejoin:miter;stroke-miterlimit:10;"/></g><?plantuml-src jLLjRnf74FxEhnWf7o9LWG0siPrQbWwuIwmIe82LIbM5bhivM7blzxgtPvjK_U-TlHTyl1nHevOlm3pFFZFpxEpkMvXFXxyrHzn7cM3pFa1fUCXHVuGYDiEmELOwu7wprnm8bYROU0j357o5cXaKMqXu50kxAe0dZi-WGZ0R16-oS21IGIeG4aDKY9Y_uHBV0Oa4m2K9jLhlcQQeGT-a6bjH04OHP3Gjz17cNppOK3sMj0KcxJ9kE1DWD9C9_LGoQP7GWZBwYWh1rqJ04w93g0nhnMaaBE_7-frlcAQIayTCJcVztNIYpZAEOmYKdqOan6mn472srYpAYhgNlaW3MhZQ0ZwXtfOe92hLFluCKXbWkoWjvoO1zIpjwh7A9J-USEbDiQGf2rAZOOkBcPLPCVznhLKgWu4ILEqRB_jK6Cc61UgPopM4J527hqY08Kk5yPGqOnOXV4RnX8Rxx3HdphyXT2wesX66fia4NqlgDy34rppETWSU4MCWV_JsFRvma-qYkI4D29vGknfPm5O2MySf5lXY7AiPPNHAKU4K7Mg96Zhj2Z1Mb9zoNlGgmHcJZpPuMGqwMgldmgGF_QlkTViGj4qMX8khoqwlSugGkr255jm8V8Lwfw12jkrrhhfEex7X0G96iTbMxMlOwSjEZwJjI3BpzjnDx6Xc0ycCqNoL4ZKaTJlvKy6aUVWoUaVp1YjbDYHcsGaL5MHIFjMGsj7UeDxRWFp4_jK0-lIFvgdZzRoR7AEpWhfifUtS3DmiVjnW6SqTwMR_dRBaiq3f_mNvtyjWSaIRuwJkhi8Y-BUrRwff6iWG9Uco8bSIHNFzYwzaoDUGVwMQ5JV9WGEtjohpcOcxkretyjDrvCRDfNFHlxOrl8hQAqf9gcPkjdGlQZhGJAu5dgBKvhls76_me-vdULTA1BavCwIxCh-X0cxBWJ2LVdQJ-Km886DeD6Y-c8HlgpG16iA4hN7Fgbt9jxUvo7zZriwTVoisw0zxRkVGYSkhNk_3pO4JiM3q4EsbJV3F5ALVPirE-MB3_KT9hKCkE-8XZkY9gKkxmyySdIdDCFTvJ6Vqt1vNQJNRNQ6Stla3GcK83j0f2mBxB7JRXQilvqr_gJE0eDFMVoAj-4ZKxRhNNhj2E34RE_0pFHYeJtTwG2Xlvefmi3tNqf0_qJsip-rRIQdfl81FbrS1o-jkR_ReEJytxNstVppjRdVGlXv-RzehHfoTVe5hf8VXVpbnHGqsN_Qyp1VEmbtE7iRZ-_6dKhn8NMLyTUuNn5XwazboEXcDbZFtrmTtlZWYMh0aFao753gY32TVnwE9CxIq6ihCxKycY-NK7LlM4JnmnWFNfcbaqEy__G7DvjttIitVhRESYanD8tLWPMLDVtLWPUL1sxHB-wqL-_GF?></g></svg>